<svg width="14" height="26" viewBox="0 0 14 26" fill="none" xmlns="http://www.w3.org/2000/svg">
    <path d="M0.456195 25.1363H5.50194C5.66128 25.1363 5.76748 25.0832 5.8737 24.9239L11.1319 17.3818L7.62646 12.3361C7.83891 12.8672 7.73267 13.4514 7.41399 13.9295L0.0843975 24.3927C-0.128055 24.7114 0.084404 25.1363 0.456195 25.1363Z" fill="url(#paint0_linear_69_19774)"/>
    <path d="M0.456195 25.1363H5.50194C5.66128 25.1363 5.76748 25.0832 5.8737 24.9239L11.1319 17.3818L7.62646 12.3361C7.83891 12.8672 7.73267 13.4514 7.41399 13.9295L0.0843975 24.3927C-0.128055 24.7114 0.084404 25.1363 0.456195 25.1363Z" fill="url(#paint1_linear_69_19774)"/>
    <g opacity="0.15">
        <path d="M7.41406 13.9295L9.32612 19.9843L11.132 17.3818L7.62653 12.3361C7.78587 12.8672 7.73274 13.4514 7.41406 13.9295Z" fill="url(#paint2_linear_69_19774)"/>
        <path d="M7.41406 13.9295L9.32612 19.9843L11.132 17.3818L7.62653 12.3361C7.78587 12.8672 7.73274 13.4514 7.41406 13.9295Z" fill="url(#paint3_linear_69_19774)"/>
    </g>
    <path d="M0.456195 0.863647H5.50194C5.66128 0.863647 5.76748 0.916761 5.8737 1.0761L13.8407 12.4954C14.0531 12.8141 14.0531 13.1859 13.8407 13.5046L11.1319 17.3818L0.0843975 1.55411C-0.128055 1.28855 0.084404 0.863647 0.456195 0.863647Z" fill="url(#paint4_linear_69_19774)"/>
    <path d="M0.456195 0.863647H5.50194C5.66128 0.863647 5.76748 0.916761 5.8737 1.0761L13.8407 12.4954C14.0531 12.8141 14.0531 13.1859 13.8407 13.5046L11.1319 17.3818L0.0843975 1.55411C-0.128055 1.28855 0.084404 0.863647 0.456195 0.863647Z" fill="url(#paint5_linear_69_19774)"/>
    <defs>
        <linearGradient id="paint0_linear_69_19774" x1="0" y1="12.3361" x2="0" y2="25.1363" gradientUnits="userSpaceOnUse">
            <stop stop-color="#4D4F95"/>
            <stop offset="1" stop-color="#2B2D66"/>
        </linearGradient>
        <linearGradient id="paint1_linear_69_19774" x1="11.1319" y1="12.3361" x2="0" y2="12.3361" gradientUnits="userSpaceOnUse">
            <stop stop-color="#6357F6"/>
            <stop offset="1" stop-color="#E6606C"/>
        </linearGradient>
        <linearGradient id="paint2_linear_69_19774" x1="7.41406" y1="12.3361" x2="7.41406" y2="19.9843" gradientUnits="userSpaceOnUse">
            <stop stop-color="#4D4F95"/>
            <stop offset="1" stop-color="#2B2D66"/>
        </linearGradient>
        <linearGradient id="paint3_linear_69_19774" x1="11.132" y1="12.3361" x2="7.41406" y2="12.3361" gradientUnits="userSpaceOnUse">
            <stop stop-color="#6357F6"/>
            <stop offset="1" stop-color="#E6606C"/>
        </linearGradient>
        <linearGradient id="paint4_linear_69_19774" x1="0" y1="0.863647" x2="0" y2="17.3818" gradientUnits="userSpaceOnUse">
            <stop stop-color="#4D4F95"/>
            <stop offset="1" stop-color="#2B2D66"/>
        </linearGradient>
        <linearGradient id="paint5_linear_69_19774" x1="14" y1="0.863647" x2="0" y2="0.863647" gradientUnits="userSpaceOnUse">
            <stop stop-color="#6357F6"/>
            <stop offset="1" stop-color="#E6606C"/>
        </linearGradient>
    </defs>
</svg>
