<svg width="48" height="48" viewBox="0 0 48 48" fill="none" xmlns="http://www.w3.org/2000/svg">
<circle cx="24" cy="24" r="24" fill="#6357F6"/>
<g clip-path="url(#clip0_226_3750)">
<path d="M19.85 20.6899H16.29V32.1499H19.85V20.6899Z" fill="white"/>
<path d="M18.07 19.13C16.92 19.13 16 18.2 16 17.06C16 15.92 16.92 15 18.07 15C19.22 15 20.13 15.92 20.13 17.06C20.13 18.2 19.21 19.12 18.07 19.12V19.13Z" fill="white"/>
<path d="M33.1801 32.14H29.6201V26.57C29.6201 25.24 29.6001 23.53 27.7701 23.53C25.9401 23.53 25.6401 24.98 25.6401 26.47V32.13H22.0901V20.69H25.5001V22.26H25.5501C26.0201 21.36 27.1901 20.41 28.9201 20.41C32.5201 20.41 33.1901 22.78 33.1901 25.87V32.16L33.1801 32.14Z" fill="white"/>
</g>
<defs>
<clipPath id="clip0_226_3750">
<rect width="17.18" height="17.14" fill="white" transform="translate(16 15)"/>
</clipPath>
</defs>
</svg>
