<svg id="visual" viewBox="0 0 960 540" width="960" height="540" xmlns="http://www.w3.org/2000/svg" xmlns:xlink="http://www.w3.org/1999/xlink" version="1.1"><g fill="#2b90de"><circle r="13" cx="478" cy="39"></circle><circle r="8" cx="323" cy="36"></circle><circle r="9" cx="669" cy="364"></circle><circle r="9" cx="556" cy="246"></circle><circle r="10" cx="2" cy="146"></circle><circle r="10" cx="682" cy="10"></circle><circle r="9" cx="446" cy="202"></circle><circle r="10" cx="388" cy="250"></circle><circle r="8" cx="374" cy="179"></circle><circle r="7" cx="47" cy="246"></circle><circle r="9" cx="893" cy="379"></circle><circle r="10" cx="431" cy="130"></circle><circle r="11" cx="849" cy="348"></circle><circle r="9" cx="725" cy="248"></circle><circle r="8" cx="149" cy="95"></circle><circle r="9" cx="919" cy="439"></circle><circle r="11" cx="654" cy="240"></circle><circle r="7" cx="541" cy="486"></circle><circle r="8" cx="839" cy="138"></circle><circle r="11" cx="847" cy="12"></circle><circle r="10" cx="734" cy="449"></circle><circle r="10" cx="247" cy="192"></circle><circle r="9" cx="925" cy="38"></circle><circle r="9" cx="942" cy="127"></circle><circle r="8" cx="203" cy="198"></circle><circle r="11" cx="397" cy="61"></circle><circle r="10" cx="83" cy="51"></circle><circle r="10" cx="792" cy="191"></circle><circle r="9" cx="896" cy="57"></circle><circle r="11" cx="430" cy="7"></circle><circle r="11" cx="102" cy="452"></circle><circle r="7" cx="958" cy="201"></circle><circle r="9" cx="149" cy="222"></circle><circle r="8" cx="703" cy="364"></circle><circle r="11" cx="308" cy="80"></circle><circle r="7" cx="341" cy="504"></circle><circle r="10" cx="152" cy="61"></circle><circle r="8" cx="630" cy="200"></circle><circle r="7" cx="127" cy="291"></circle></g></svg>