<svg width="48" height="48" viewBox="0 0 48 48" fill="none" xmlns="http://www.w3.org/2000/svg">
<g clip-path="url(#clip0_226_3756)">
<path d="M24 0C10.8179 0 0 10.8179 0 24C0 35.2489 7.89331 45.4673 18.375 48V40.0598C17.3364 40.2872 16.3806 40.2938 15.3234 39.9822C13.905 39.5636 12.7526 38.6188 11.8971 37.1781C11.3518 36.2582 10.3854 35.2606 9.3772 35.3339L9.13 32.5323C11.3101 32.3456 13.196 33.8606 14.3156 35.7415C14.8129 36.5779 15.3853 37.0682 16.1199 37.285C16.83 37.4941 17.5924 37.3938 18.4808 37.08C18.7039 35.3013 19.5187 34.6355 20.1343 33.698V33.6965C13.8831 32.7642 11.3917 29.4478 10.403 26.8301C9.09265 23.3544 9.79578 19.0122 12.1128 16.2682C12.1578 16.2147 12.2391 16.0748 12.2076 15.9771C11.1453 12.7679 12.4398 10.1133 12.4874 9.83167C13.7135 10.1942 13.9127 9.46692 17.8132 11.8367L18.4874 12.2417C18.7694 12.4098 18.6808 12.3138 18.9628 12.2926C20.5913 11.8502 22.3081 11.606 23.9996 11.584C25.704 11.606 27.4098 11.8502 29.1057 12.3105L29.324 12.3325C29.3049 12.3296 29.3833 12.3186 29.5148 12.2402C34.3872 9.28894 34.2122 10.2535 35.5188 9.82874C35.566 10.1107 36.8434 12.8086 35.7924 15.9771C35.6506 16.4136 40.0166 20.4115 37.5967 26.829C36.6079 29.4478 34.1169 32.7642 27.8657 33.6965V33.698C28.667 34.9193 29.6298 35.569 29.6246 38.0885V48C40.1067 45.4673 47.9996 35.2489 47.9996 24C48 10.8179 37.1821 0 24 0V0Z" fill="#6357F6"/>
</g>
<defs>
<clipPath id="clip0_226_3756">
<rect width="48" height="48" fill="white"/>
</clipPath>
</defs>
</svg>
