<svg
	width="160"
	height="165"
	viewBox="0 0 160 165"
	fill="none"
	xmlns="http://www.w3.org/2000/svg"
>
	<g filter="url(#filter0_d_69_21072)">
		<path
			d="M79 14.6188C83.9504 11.7607 90.0496 11.7607 95 14.6188L141.354 41.3812C146.304 44.2393 149.354 49.5214 149.354 55.2376V108.762C149.354 114.479 146.304 119.761 141.354 122.619L95 149.381C90.0496 152.239 83.9504 152.239 79 149.381L32.6462 122.619C27.6958 119.761 24.6462 114.479 24.6462 108.762V55.2376C24.6462 49.5214 27.6958 44.2393 32.6462 41.3812L79 14.6188Z"
			fill="#424385"/>
		<path
			d="M79.5 15.4848C84.141 12.8053 89.859 12.8053 94.5 15.4848L140.854 42.2472C145.495 44.9267 148.354 49.8786 148.354 55.2376V108.762C148.354 114.121 145.495 119.073 140.854 121.753L94.5 148.515C89.859 151.195 84.141 151.195 79.5 148.515L33.1462 121.753C28.5052 119.073 25.6462 114.121 25.6462 108.762V55.2376C25.6462 49.8786 28.5052 44.9267 33.1462 42.2472L79.5 15.4848Z"
			stroke="white" stroke-opacity="0.0782099" stroke-width="2"/>
	</g>
	<path
		d="M81 28.3301C84.4034 26.3652 88.5966 26.3652 92 28.3301L129.796 50.1519C133.2 52.1169 135.296 55.7483 135.296 59.6782V103.322C135.296 107.252 133.2 110.883 129.796 112.848L92 134.67C88.5966 136.635 84.4034 136.635 81 134.67L43.2035 112.848C39.8001 110.883 37.7035 107.252 37.7035 103.322V59.6782C37.7035 55.7483 39.8001 52.1169 43.2035 50.1519L81 28.3301Z"
		stroke="url(#paint0_linear_69_21072)" stroke-width="2"/>
	<path
		d="M81 28.3301C84.4034 26.3652 88.5966 26.3652 92 28.3301L129.796 50.1519C133.2 52.1169 135.296 55.7483 135.296 59.6782V103.322C135.296 107.252 133.2 110.883 129.796 112.848L92 134.67C88.5966 136.635 84.4034 136.635 81 134.67L43.2035 112.848C39.8001 110.883 37.7035 107.252 37.7035 103.322V59.6782C37.7035 55.7483 39.8001 52.1169 43.2035 50.1519L81 28.3301Z"
		stroke="url(#paint1_linear_69_21072)" stroke-width="2"/>
	<path d="M106.068 62H66.9318C66.41 62 66 62.41 66 62.9318V89.9545H107V62.9318C107 62.41 106.59 62 106.068 62Z"
				fill="white"/>
	<path
		d="M66 94.6136C66 95.1354 66.41 95.5454 66.9318 95.5454H106.068C106.59 95.5454 107 95.1354 107 94.6136V91.8182H66V94.6136Z"
		fill="white"/>
	<path
		d="M94.8862 101.136H90.2271V97.4091H82.7725V101.136H78.1135C77.5916 101.136 77.1816 101.546 77.1816 102.068C77.1816 102.59 77.5916 103 78.1135 103H94.8862C95.408 103 95.818 102.59 95.818 102.068C95.818 101.546 95.408 101.136 94.8862 101.136Z"
		fill="white"/>
	<defs>
		<filter id="filter0_d_69_21072" x="0.645996" y="0.47522" width="172.708" height="187.05"
						filterUnits="userSpaceOnUse" color-interpolation-filters="sRGB">
			<feFlood flood-opacity="0" result="BackgroundImageFix"/>
			<feColorMatrix in="SourceAlpha" type="matrix" values="0 0 0 0 0 0 0 0 0 0 0 0 0 0 0 0 0 0 127 0"
										 result="hardAlpha"/>
			<feOffset dy="12"/>
			<feGaussianBlur stdDeviation="12"/>
			<feColorMatrix type="matrix" values="0 0 0 0 0 0 0 0 0 0.0037911 0 0 0 0 0.170599 0 0 0 0.157184 0"/>
			<feBlend mode="normal" in2="BackgroundImageFix" result="effect1_dropShadow_69_21072"/>
			<feBlend mode="normal" in="SourceGraphic" in2="effect1_dropShadow_69_21072" result="shape"/>
		</filter>
		<linearGradient id="paint0_linear_69_21072" x1="29" y1="24" x2="29" y2="139" gradientUnits="userSpaceOnUse">
			<stop stop-color="#4D4F95"/>
			<stop offset="1" stop-color="#2B2D66"/>
		</linearGradient>
		<linearGradient id="paint1_linear_69_21072" x1="144" y1="24" x2="29" y2="24" gradientUnits="userSpaceOnUse">
			<stop stop-color="#6357F6"/>
			<stop offset="1" stop-color="#E6606C"/>
		</linearGradient>
	</defs>
</svg>
