<svg
	width="160"
	height="165"
	viewBox="0 0 160 165"
	fill="none"
	xmlns="http://www.w3.org/2000/svg"
>
	<g filter="url(#filter0_d_69_21061)">
		<path
			d="M79 14.6188C83.9504 11.7607 90.0496 11.7607 95 14.6188L141.354 41.3812C146.304 44.2393 149.354 49.5214 149.354 55.2376V108.762C149.354 114.479 146.304 119.761 141.354 122.619L95 149.381C90.0496 152.239 83.9504 152.239 79 149.381L32.6462 122.619C27.6958 119.761 24.6462 114.479 24.6462 108.762V55.2376C24.6462 49.5214 27.6958 44.2393 32.6462 41.3812L79 14.6188Z"
			fill="url(#paint0_linear_69_21061)"/>
		<path
			d="M79.5 15.4848C84.141 12.8053 89.859 12.8053 94.5 15.4848L140.854 42.2472C145.495 44.9267 148.354 49.8786 148.354 55.2376V108.762C148.354 114.121 145.495 119.073 140.854 121.753L94.5 148.515C89.859 151.195 84.141 151.195 79.5 148.515L33.1462 121.753C28.5052 119.073 25.6462 114.121 25.6462 108.762V55.2376C25.6462 49.8786 28.5052 44.9267 33.1462 42.2472L79.5 15.4848Z"
			stroke="white" stroke-opacity="0.0782099" stroke-width="2"/>
	</g>
	<path
		d="M81 28.3301C84.4034 26.3652 88.5966 26.3652 92 28.3301L129.796 50.1519C133.2 52.1169 135.296 55.7483 135.296 59.6782V103.322C135.296 107.252 133.2 110.883 129.796 112.848L92 134.67C88.5966 136.635 84.4034 136.635 81 134.67L43.2035 112.848C39.8001 110.883 37.7035 107.252 37.7035 103.322V59.6782C37.7035 55.7483 39.8001 52.1169 43.2035 50.1519L81 28.3301Z"
		stroke="url(#paint1_linear_69_21061)" stroke-width="2"/>
	<path
		d="M81 28.3301C84.4034 26.3652 88.5966 26.3652 92 28.3301L129.796 50.1519C133.2 52.1169 135.296 55.7483 135.296 59.6782V103.322C135.296 107.252 133.2 110.883 129.796 112.848L92 134.67C88.5966 136.635 84.4034 136.635 81 134.67L43.2035 112.848C39.8001 110.883 37.7035 107.252 37.7035 103.322V59.6782C37.7035 55.7483 39.8001 52.1169 43.2035 50.1519L81 28.3301Z"
		stroke="url(#paint2_linear_69_21061)" stroke-width="2"/>
	<path
		d="M78.4166 104H94.9166C98.1432 104 100.82 101.598 101.26 98.5H72.0732C72.5132 101.598 75.1899 104 78.4166 104ZM85.7499 100.333H87.5832C88.0966 100.333 88.4999 100.737 88.4999 101.25C88.4999 101.763 88.0966 102.167 87.5832 102.167H85.7499C85.2366 102.167 84.8332 101.763 84.8332 101.25C84.8332 100.737 85.2366 100.333 85.7499 100.333Z"
		fill="white"/>
	<path
		d="M94.9166 60H78.4166C75.1899 60 72.5132 62.4017 72.0732 65.5H101.26C100.82 62.4017 98.1432 60 94.9166 60ZM93.0832 63.6667C92.6066 63.6667 92.1666 63.2817 92.1666 62.75C92.1666 62.2733 92.5332 61.8333 93.0832 61.8333C93.6332 61.8333 93.9999 62.2733 93.9999 62.75C93.9999 63.2633 93.5782 63.6667 93.0832 63.6667Z"
		fill="white"/>
	<path d="M101.333 67.3333H72V96.6666H101.333V67.3333Z" fill="white"/>
	<defs>
		<filter id="filter0_d_69_21061" x="0.645996" y="0.47522" width="172.708" height="187.05"
						filterUnits="userSpaceOnUse" color-interpolation-filters="sRGB">
			<feFlood flood-opacity="0" result="BackgroundImageFix"/>
			<feColorMatrix in="SourceAlpha" type="matrix" values="0 0 0 0 0 0 0 0 0 0 0 0 0 0 0 0 0 0 127 0"
										 result="hardAlpha"/>
			<feOffset dy="12"/>
			<feGaussianBlur stdDeviation="12"/>
			<feColorMatrix type="matrix" values="0 0 0 0 0 0 0 0 0 0.0037911 0 0 0 0 0.170599 0 0 0 0.157184 0"/>
			<feBlend mode="normal" in2="BackgroundImageFix" result="effect1_dropShadow_69_21061"/>
			<feBlend mode="normal" in="SourceGraphic" in2="effect1_dropShadow_69_21061" result="shape"/>
		</filter>
		<linearGradient id="paint0_linear_69_21061" x1="15" y1="10" x2="15" y2="154" gradientUnits="userSpaceOnUse">
			<stop stop-color="#4D4F95"/>
			<stop offset="1" stop-color="#2B2D66"/>
		</linearGradient>
		<linearGradient id="paint1_linear_69_21061" x1="29" y1="24" x2="29" y2="139" gradientUnits="userSpaceOnUse">
			<stop stop-color="#4D4F95"/>
			<stop offset="1" stop-color="#2B2D66"/>
		</linearGradient>
		<linearGradient id="paint2_linear_69_21061" x1="144" y1="24" x2="29" y2="24" gradientUnits="userSpaceOnUse">
			<stop stop-color="#6357F6"/>
			<stop offset="1" stop-color="#E6606C"/>
		</linearGradient>
	</defs>
</svg>
